<svg id="Flat" height="512" viewBox="0 0 128 128" width="512" xmlns="http://www.w3.org/2000/svg"><path d="m43.271 86.14c-.144.977-10.059-6.455-10.059-6.455h-9.4a21 21 0 0 1 -20.76-20.951c-.016-.945-.016-1.874 0-2.819a20.988 20.988 0 0 1 20.758-20.934c5.174-.016 10.331-.016 15.505 0a20.988 20.988 0 0 1 20.758 20.934v2.819a21.041 21.041 0 0 1 -18.324 20.791s1.751 5.141 1.522 6.615z" fill="#ff8c83"/><path d="m74.114 116.523s-1.616 7.292-1.38 8.841c.151 1.027 10.926-6.953 10.926-6.953a24.964 24.964 0 1 0 -9.546-1.888z" fill="#6cd8d5"/><path d="m76.15 60.4c.168 1.14 13.032-8.871 13.032-8.871l15.11-.166a14.77 14.77 0 0 0 14.609-12.5l2.8-18a14.786 14.786 0 0 0 -14.601-17.063h-30.412a14.788 14.788 0 0 0 -14.718 16.171l1.669 17.988a14.788 14.788 0 0 0 13.61 13.364s-1.361 7.36-1.099 9.077z" fill="#ffb95c"/><circle cx="24.832" cy="55.716" fill="#dd375f" r="2.736"/><circle cx="43.549" cy="55.716" fill="#dd375f" r="2.736"/><circle cx="70.24" cy="86.452" fill="#44bcbc" r="2.875"/><circle cx="87.493" cy="86.452" fill="#44bcbc" r="2.875"/><g fill="#fff"><path d="m81.907 27.477a1.915 1.915 0 0 0 -1.872 2.251c.642 3.83 3.055 7.089 8.282 7.089s7.639-3.259 8.281-7.089a1.915 1.915 0 0 0 -1.872-2.251z"/><path d="m34.624 64.51a4.336 4.336 0 0 1 -4.481-3.822 1.5 1.5 0 1 1 2.959-.5 1.538 1.538 0 0 0 3.044 0 1.5 1.5 0 1 1 2.959.5 4.336 4.336 0 0 1 -4.481 3.822z"/><path d="m75.3 94.478a1.012 1.012 0 0 0 -.989 1.19 4.43 4.43 0 0 0 8.754 0 1.012 1.012 0 0 0 -.989-1.19z"/></g><path d="m83.407 20.763a1.5 1.5 0 0 1 -1.092-.471 3.834 3.834 0 0 0 -4.076-.42 1.5 1.5 0 1 1 -1.827-2.379c1.724-1.326 5.88-1.6 8.086.741a1.5 1.5 0 0 1 -1.091 2.529z" fill="#f7844b"/><path d="m94.418 20.763a1.5 1.5 0 0 1 -1.09-2.529c2.206-2.339 6.362-2.066 8.087-.741a1.5 1.5 0 0 1 -1.828 2.379 3.842 3.842 0 0 0 -4.077.42 1.5 1.5 0 0 1 -1.092.471z" fill="#f7844b"/></svg>