<svg id="Capa_1" enable-background="new 0 0 512 512" viewBox="0 0 512 512" xmlns="http://www.w3.org/2000/svg"><g><g><g><g><path d="m453.317 289.03h-48.099v-5.817c0-18.064-14.697-32.761-32.762-32.761s-32.761 14.697-32.761 32.761v5.817h-48.099l-1.568 1-1 2.474v49.193h7.816c16.962 0 30.761 13.799 30.761 30.761 0 16.961-13.799 30.761-30.761 30.761h-7.816v48.256l1 3.411h78.578c-1.174-5.154-1.814-10.507-1.814-16.011 0-39.754 32.338-72.097 72.088-72.097 5.501 0 10.852.64 16.004 1.813v-78.56z" fill="#fe4fb7"/><g><path d="m290.03 130.325v45.516h-6.817c-17.541 0-31.761 14.22-31.761 31.761 0 17.541 14.22 31.761 31.761 31.761h6.817v50.666h50.667v-6.817c0-17.541 14.22-31.761 31.761-31.761 17.541 0 31.761 14.22 31.761 31.761v6.817h50.667v-159.704c0-2.845-2.306-5.151-5.151-5.151h-154.554c-2.845.001-5.151 2.307-5.151 5.151z" fill="#05e39c"/></g><g><path d="m449.734 125.175h-23.694v164.855h28.845v-159.705c0-2.844-2.306-5.15-5.151-5.15z" fill="#0ed290"/></g><g><g><path d="m367.961 426.04h-77.931v28.845h78.578c-1.174-5.153-1.814-10.507-1.814-16.011 0-4.382.414-8.666 1.167-12.834z" fill="#fe2aa8"/></g></g><g><g><path d="m426.04 290.03v77.916c4.17-.753 8.457-1.169 12.841-1.169 5.501 0 10.852.64 16.004 1.813v-78.56z" fill="#fe2aa8"/></g></g><g><g><ellipse cx="438.882" cy="438.874" fill="#ffe177" rx="73.118" ry="73.126"/></g><g><path d="m456.341 367.861c16.366 13.411 26.814 33.778 26.814 56.59 0 40.387-32.736 73.126-73.118 73.126-6.019 0-11.863-.742-17.459-2.114 12.609 10.332 28.73 16.537 46.304 16.537 40.382 0 73.118-32.74 73.118-73.126 0-34.367-23.71-63.182-55.659-71.013z" fill="#ffd15b"/></g></g><g><path d="m296.847 340.696h-6.817v-50.666h-45.516c-2.845 0-5.151 2.306-5.151 5.151v1.666c0 17.541-14.22 31.761-31.761 31.761-17.541 0-31.761-14.22-31.761-31.761v-1.666c0-2.845-2.306-5.151-5.151-5.151h-40.365c-2.845 0-5.151 2.306-5.151 5.151v154.553c0 2.845 2.306 5.151 5.151 5.151h159.705v-50.666h6.817c17.541 0 31.761-14.22 31.761-31.761 0-17.542-14.22-31.762-31.761-31.762z" fill="#99e6fc"/></g><g><g><path d="m125.175 426.04v23.694c0 2.845 2.306 5.151 5.151 5.151h159.704v-28.845z" fill="#62dbfb"/></g></g></g><g><g><path d="m216.819 57.115h-73.427c1.174 5.153 1.814 10.507 1.814 16.011 0 39.754-32.338 72.097-72.088 72.097-5.501 0-10.852-.64-16.004-1.813v73.41c0 2.845 2.306 5.151 5.151 5.151h45.516v6.817c0 17.541 14.22 31.761 31.761 31.761 17.541 0 31.761-14.22 31.761-31.761v-6.817h45.516c2.845 0 5.151-2.306 5.151-5.151v-40.365c0-2.845-2.306-5.151-5.151-5.151h-1.666c-17.541 0-31.761-14.22-31.761-31.761 0-17.541 14.22-31.761 31.761-31.761h1.666c2.845 0 5.151-2.306 5.151-5.151v-40.365c0-2.845-2.306-5.151-5.151-5.151z" fill="#af66da"/></g><g><g><path d="m142.459 228.787c0 12.346-7.049 23.039-17.339 28.295 4.329 2.211 9.228 3.466 14.422 3.466 17.541 0 31.761-14.22 31.761-31.761v-6.817h-22.028c-3.764 0-6.816 3.052-6.816 6.817z" fill="#9857bd"/></g><g><g><path d="m216.819 107.782c2.845 0 5.151-2.306 5.151-5.151v-40.365c0-2.845-2.306-5.151-5.151-5.151h-23.694v59.559c5.711-5.502 13.471-8.892 22.028-8.892z" fill="#9857bd"/></g><g><g><path d="m216.819 171.304h-1.666c-8.557 0-16.317-3.39-22.028-8.892v59.559h23.694c2.845 0 5.151-2.306 5.151-5.151v-40.365c0-2.845-2.306-5.151-5.151-5.151z" fill="#9857bd"/></g></g></g></g><g><g><ellipse cx="73.118" cy="73.126" fill="#ffe177" rx="73.118" ry="73.126"/></g><g><path d="m90.578 2.114c16.366 13.411 26.814 33.778 26.814 56.59 0 40.387-32.736 73.126-73.118 73.126-6.019 0-11.863-.743-17.459-2.114 12.61 10.332 28.731 16.537 46.304 16.537 40.382 0 73.118-32.74 73.118-73.126 0-34.367-23.711-63.182-55.659-71.013z" fill="#ffd15b"/></g><g><path d="m43.073 82.381c-1.964 0-3.453 1.807-3.045 3.729 3.248 15.297 16.826 26.775 33.09 26.775s29.842-11.478 33.09-26.775c.408-1.921-1.081-3.729-3.045-3.729z" fill="#feb237"/></g><g><path d="m103.163 82.381h-19.534c-4.357 13.297-16.722 22.957-31.397 23.276 5.752 4.524 13.001 7.228 20.887 7.228 16.264 0 29.842-11.478 33.09-26.775.407-1.922-1.082-3.729-3.046-3.729z" fill="#f6ab31"/></g></g></g></g></g><g><g><g><path d="m416.417 427.971c-4.143 0-7.5-3.358-7.5-7.5v-6.912c0-4.142 3.357-7.5 7.5-7.5s7.5 3.358 7.5 7.5v6.912c0 4.142-3.357 7.5-7.5 7.5z" fill="#feb237"/></g><g><path d="m461.347 427.971c-4.143 0-7.5-3.358-7.5-7.5v-6.912c0-4.142 3.357-7.5 7.5-7.5s7.5 3.358 7.5 7.5v6.912c0 4.142-3.358 7.5-7.5 7.5z" fill="#feb237"/></g></g><g><path d="m438.882 476.881c-14.728 0-26.914-11.044-28.347-25.69-.403-4.123 2.611-7.792 6.733-8.195 4.12-.408 7.791 2.612 8.195 6.734.677 6.928 6.446 12.151 13.418 12.151s12.74-5.224 13.417-12.151c.404-4.122 4.057-7.136 8.195-6.734 4.122.403 7.137 4.072 6.733 8.195-1.431 14.645-13.617 25.69-28.344 25.69z" fill="#feb237"/></g><g><g><path d="m50.653 62.224c-4.143 0-7.5-3.358-7.5-7.5v-6.912c0-4.142 3.357-7.5 7.5-7.5s7.5 3.358 7.5 7.5v6.912c0 4.142-3.357 7.5-7.5 7.5z" fill="#feb237"/></g><g><path d="m95.583 62.224c-4.143 0-7.5-3.358-7.5-7.5v-6.912c0-4.142 3.357-7.5 7.5-7.5s7.5 3.358 7.5 7.5v6.912c0 4.142-3.357 7.5-7.5 7.5z" fill="#feb237"/></g></g></g></g><g/><g/><g/><g/><g/><g/><g/><g/><g/><g/><g/><g/><g/><g/><g/></svg>